<svg width="499" height="110" viewBox="0 0 499 110" fill="none" xmlns="http://www.w3.org/2000/svg">
<g clip-path="url(#clip0_943_10610)">
<path d="M104.371 77.767C106.076 72.9596 107 67.7852 107 62.3976L104.371 77.767Z" fill="#55BFED"/>
<path d="M107 31.6646C107 35.9096 105.277 39.746 102.506 42.5286C99.7238 45.3112 95.8815 47.0341 91.6365 47.0341C83.1466 47.0341 76.2671 40.1545 76.2671 31.6646C76.2671 27.4197 77.9899 23.5773 80.7725 20.7947C83.5551 18.018 87.3916 16.3011 91.6365 16.3011C100.121 16.3011 107 23.1806 107 31.6646Z" fill="#FCDF47"/>
<path d="M107 52.9545V62.3976C107 67.7852 106.076 72.9596 104.371 77.767C99.7475 90.869 89.363 101.247 76.267 105.877C71.4656 107.576 66.2911 108.5 60.9035 108.5C55.5159 108.5 50.3415 107.576 45.5341 105.877C27.6307 99.5483 14.8011 82.4738 14.8011 62.3976V47.0341H0V16.3011H14.8011V1.5H45.5341V16.3011H70.3466V47.0341H45.5341V62.3976C45.5341 70.8875 52.4136 77.767 60.9035 77.767C69.3934 77.767 76.267 70.8875 76.267 62.3976V52.9545H107Z" fill="url(#paint0_linear_943_10610)"/>
</g>
<path d="M226.897 13.4611V32.089H201.584V108.912H178.313V32.089H153V13.4611H226.897Z" fill="#374151"/>
<path d="M259.806 45.686C262.528 41.5163 265.93 38.253 270.013 35.8962C274.096 33.4487 278.632 32.225 283.622 32.225V56.8356H277.226C271.419 56.8356 267.064 58.1047 264.161 60.6428C261.258 63.0902 259.806 67.4413 259.806 73.6959V108.912H236.535V33.0408H259.806V45.686Z" fill="#374151"/>
<path d="M288.077 70.8406C288.077 63.0449 289.528 56.2011 292.432 50.309C295.425 44.417 299.463 39.8846 304.544 36.712C309.624 33.5394 315.295 31.953 321.555 31.953C326.908 31.953 331.58 33.0408 335.572 35.2163C339.655 37.3918 342.785 40.2472 344.962 43.7825V33.0408H368.234V108.912H344.962V98.1706C342.694 101.706 339.519 104.561 335.436 106.737C331.444 108.912 326.772 110 321.419 110C315.249 110 309.624 108.414 304.544 105.241C299.463 101.978 295.425 97.4001 292.432 91.508C289.528 85.5254 288.077 78.6362 288.077 70.8406ZM344.962 70.9765C344.962 65.1751 343.329 60.5975 340.063 57.2435C336.888 53.8896 332.986 52.2126 328.359 52.2126C323.732 52.2126 319.786 53.8896 316.519 57.2435C313.344 60.5068 311.756 65.0392 311.756 70.8406C311.756 76.642 313.344 81.2649 316.519 84.7095C319.786 88.0635 323.732 89.7404 328.359 89.7404C332.986 89.7404 336.888 88.0635 340.063 84.7095C343.329 81.3556 344.962 76.7779 344.962 70.9765Z" fill="#374151"/>
<path d="M394.732 25.1545C390.649 25.1545 387.292 23.9761 384.661 21.6193C382.121 19.1718 380.851 16.1805 380.851 12.6452C380.851 9.01937 382.121 6.02802 384.661 3.6712C387.292 1.22373 390.649 0 394.732 0C398.724 0 401.99 1.22373 404.53 3.6712C407.161 6.02802 408.477 9.01937 408.477 12.6452C408.477 16.1805 407.161 19.1718 404.53 21.6193C401.99 23.9761 398.724 25.1545 394.732 25.1545ZM406.299 33.0408V108.912H383.028V33.0408H406.299Z" fill="#374151"/>
<path d="M463.447 89.1965V108.912H451.607C443.169 108.912 436.591 106.873 431.874 102.794C427.156 98.6238 424.797 91.8706 424.797 82.534V52.3486H415.543V33.0408H424.797V14.5488H448.068V33.0408H463.31V52.3486H448.068V82.8059C448.068 85.0721 448.613 86.7038 449.701 87.7009C450.79 88.698 452.605 89.1965 455.145 89.1965H463.447Z" fill="#374151"/>
<path d="M485.255 110C481.172 110 477.815 108.822 475.184 106.465C472.644 104.017 471.374 101.026 471.374 97.4907C471.374 93.8649 472.644 90.8282 475.184 88.3807C477.815 85.9333 481.172 84.7095 485.255 84.7095C489.247 84.7095 492.513 85.9333 495.053 88.3807C497.684 90.8282 499 93.8649 499 97.4907C499 101.026 497.684 104.017 495.053 106.465C492.513 108.822 489.247 110 485.255 110Z" fill="#374151"/>
<defs>
<linearGradient id="paint0_linear_943_10610" x1="53.5" y1="1.5" x2="53.5" y2="108.5" gradientUnits="userSpaceOnUse">
<stop stop-color="#3CC3FF"/>
<stop offset="1" stop-color="#007EFF"/>
</linearGradient>
<clipPath id="clip0_943_10610">
<rect width="107" height="107" fill="white" transform="translate(0 1.5)"/>
</clipPath>
</defs>
</svg>
